<mxfile host="app.diagrams.net" agent="Mozilla/5.0 (Macintosh; Intel Mac OS X 10_15_7) AppleWebKit/537.36 (KHTML, like Gecko) Chrome/131.0.0.0 Safari/537.36" version="26.0.5">
  <diagram name="Seite-1" id="B0YI41_dNEJYb-Yr5A8I">
    <mxGraphModel dx="1224" dy="694" grid="1" gridSize="10" guides="1" tooltips="1" connect="1" arrows="1" fold="1" page="1" pageScale="1" pageWidth="827" pageHeight="1169" math="0" shadow="0">
      <root>
        <mxCell id="0" />
        <mxCell id="1" parent="0" />
        <mxCell id="b0nGbMxbhNJSgptDqxXZ-1" value="" style="ellipse;whiteSpace=wrap;html=1;aspect=fixed;fillColor=#000000;" vertex="1" parent="1">
          <mxGeometry x="112.5" y="130" width="30" height="30" as="geometry" />
        </mxCell>
        <mxCell id="b0nGbMxbhNJSgptDqxXZ-2" value="" style="endArrow=open;endFill=1;endSize=12;html=1;rounded=0;exitX=0.5;exitY=1;exitDx=0;exitDy=0;" edge="1" parent="1" source="b0nGbMxbhNJSgptDqxXZ-1">
          <mxGeometry width="160" relative="1" as="geometry">
            <mxPoint x="122.5" y="320" as="sourcePoint" />
            <mxPoint x="127.5" y="220" as="targetPoint" />
          </mxGeometry>
        </mxCell>
        <mxCell id="b0nGbMxbhNJSgptDqxXZ-3" value="" style="rhombus;whiteSpace=wrap;html=1;fillColor=#dae8fc;strokeColor=#6c8ebf;" vertex="1" parent="1">
          <mxGeometry x="100" y="220" width="55" height="50" as="geometry" />
        </mxCell>
        <mxCell id="b0nGbMxbhNJSgptDqxXZ-4" value="" style="endArrow=open;endFill=1;endSize=12;html=1;rounded=0;entryX=1;entryY=0.5;entryDx=0;entryDy=0;exitX=0;exitY=0.5;exitDx=0;exitDy=0;" edge="1" parent="1" source="b0nGbMxbhNJSgptDqxXZ-5" target="b0nGbMxbhNJSgptDqxXZ-3">
          <mxGeometry width="160" relative="1" as="geometry">
            <mxPoint x="302.5" y="260" as="sourcePoint" />
            <mxPoint x="222.5" y="270" as="targetPoint" />
          </mxGeometry>
        </mxCell>
        <mxCell id="b0nGbMxbhNJSgptDqxXZ-5" value="i ++" style="rounded=1;whiteSpace=wrap;html=1;" vertex="1" parent="1">
          <mxGeometry x="242.5" y="225" width="90" height="40" as="geometry" />
        </mxCell>
        <mxCell id="b0nGbMxbhNJSgptDqxXZ-6" value="" style="endArrow=open;endFill=1;endSize=12;html=1;rounded=0;exitX=0.5;exitY=1;exitDx=0;exitDy=0;entryX=0;entryY=0.5;entryDx=0;entryDy=0;" edge="1" parent="1" source="b0nGbMxbhNJSgptDqxXZ-3" target="b0nGbMxbhNJSgptDqxXZ-7">
          <mxGeometry width="160" relative="1" as="geometry">
            <mxPoint x="287.5" y="420" as="sourcePoint" />
            <mxPoint x="232.5" y="400" as="targetPoint" />
            <Array as="points">
              <mxPoint x="127.5" y="380" />
            </Array>
          </mxGeometry>
        </mxCell>
        <mxCell id="b0nGbMxbhNJSgptDqxXZ-7" value="" style="rhombus;whiteSpace=wrap;html=1;fillColor=#dae8fc;strokeColor=#6c8ebf;" vertex="1" parent="1">
          <mxGeometry x="192.5" y="350" width="60" height="60" as="geometry" />
        </mxCell>
        <mxCell id="b0nGbMxbhNJSgptDqxXZ-9" value="" style="endArrow=open;endFill=1;endSize=12;html=1;rounded=0;entryX=0.5;entryY=1;entryDx=0;entryDy=0;exitX=1;exitY=0.5;exitDx=0;exitDy=0;" edge="1" parent="1" source="b0nGbMxbhNJSgptDqxXZ-7" target="b0nGbMxbhNJSgptDqxXZ-5">
          <mxGeometry width="160" relative="1" as="geometry">
            <mxPoint x="477.5" y="310" as="sourcePoint" />
            <mxPoint x="342.5" y="310" as="targetPoint" />
            <Array as="points">
              <mxPoint x="287.5" y="380" />
            </Array>
          </mxGeometry>
        </mxCell>
        <mxCell id="b0nGbMxbhNJSgptDqxXZ-10" value="" style="endArrow=open;endFill=1;endSize=12;html=1;rounded=0;exitX=0.5;exitY=1;exitDx=0;exitDy=0;" edge="1" parent="1" source="b0nGbMxbhNJSgptDqxXZ-7" target="b0nGbMxbhNJSgptDqxXZ-11">
          <mxGeometry width="160" relative="1" as="geometry">
            <mxPoint x="312.5" y="580" as="sourcePoint" />
            <mxPoint x="272.5" y="560" as="targetPoint" />
          </mxGeometry>
        </mxCell>
        <mxCell id="b0nGbMxbhNJSgptDqxXZ-11" value="vera.dreheDich&lt;div&gt;RechtsRum()&lt;/div&gt;" style="rounded=1;whiteSpace=wrap;html=1;" vertex="1" parent="1">
          <mxGeometry x="177.5" y="470" width="90" height="40" as="geometry" />
        </mxCell>
        <mxCell id="b0nGbMxbhNJSgptDqxXZ-12" value="" style="endArrow=open;endFill=1;endSize=12;html=1;rounded=0;exitX=0.5;exitY=1;exitDx=0;exitDy=0;" edge="1" parent="1">
          <mxGeometry width="160" relative="1" as="geometry">
            <mxPoint x="222" y="510" as="sourcePoint" />
            <mxPoint x="222.5" y="570" as="targetPoint" />
          </mxGeometry>
        </mxCell>
        <mxCell id="b0nGbMxbhNJSgptDqxXZ-13" value="" style="ellipse;whiteSpace=wrap;html=1;aspect=fixed;fillColor=#000000;" vertex="1" parent="1">
          <mxGeometry x="202.5" y="575" width="40" height="40" as="geometry" />
        </mxCell>
        <mxCell id="b0nGbMxbhNJSgptDqxXZ-14" value="" style="ellipse;whiteSpace=wrap;html=1;aspect=fixed;fillColor=none;" vertex="1" parent="1">
          <mxGeometry x="197.5" y="570" width="50" height="50" as="geometry" />
        </mxCell>
        <mxCell id="b0nGbMxbhNJSgptDqxXZ-15" value="[true]" style="text;html=1;align=center;verticalAlign=middle;whiteSpace=wrap;rounded=0;" vertex="1" parent="1">
          <mxGeometry x="242.5" y="365" width="60" height="30" as="geometry" />
        </mxCell>
        <mxCell id="b0nGbMxbhNJSgptDqxXZ-16" value="[false]" style="text;html=1;align=center;verticalAlign=middle;whiteSpace=wrap;rounded=0;" vertex="1" parent="1">
          <mxGeometry x="192.5" y="410" width="60" height="30" as="geometry" />
        </mxCell>
        <mxCell id="b0nGbMxbhNJSgptDqxXZ-17" value="&lt;b&gt;&lt;font style=&quot;font-size: 18px;&quot;&gt;Einfache for-Schleife&lt;/font&gt;&lt;/b&gt;" style="text;html=1;align=center;verticalAlign=middle;resizable=0;points=[];autosize=1;strokeColor=none;fillColor=none;" vertex="1" parent="1">
          <mxGeometry x="112.5" y="53" width="200" height="40" as="geometry" />
        </mxCell>
      </root>
    </mxGraphModel>
  </diagram>
</mxfile>
